PathFileType	4	(X/Y/Z)	Kaydara	
DataRate	CameraRate	NumFrames	NumMarkers	Units	OrigDataRate	OrigDataStartFrame	OrigNumFrames	
120.00	120.00	4	72	mm	120.00	202	268	
Frame#	Time	Hips			RightUpLeg			RightLeg			RightFoot			RightFoot_End			LeftUpLeg			LeftLeg			LeftFoot			LeftFoot_End			Spine			Spine1			Spine2			Spine3			Neck			Head			Head_End			RightShoulder			RightArm			RightForeArm			RightHand			RightHandThumb1			RightHandThumb2			RightHandThumb3			RightHandThumb3_End			RightInHandIndex			RightHandIndex1			RightHandIndex2			RightHandIndex3			RightHandIndex3_End			RightInHandMiddle			RightHandMiddle1			RightHandMiddle2			RightHandMiddle3			RightHandMiddle3_End			RightInHandRing			RightHandRing1			RightHandRing2			RightHandRing3			RightHandRing3_End			RightInHandPinky			RightHandPinky1			RightHandPinky2			RightHandPinky3			RightHandPinky3_End			LeftShoulder			LeftArm			LeftForeArm			LeftHand			LeftHandThumb1			LeftHandThumb2			LeftHandThumb3			LeftHandThumb3_End			LeftInHandIndex			LeftHandIndex1			LeftHandIndex2			LeftHandIndex3			LeftHandIndex3_End			LeftInHandMiddle			LeftHandMiddle1			LeftHandMiddle2			LeftHandMiddle3			LeftHandMiddle3_End			LeftInHandRing			LeftHandRing1			LeftHandRing2			LeftHandRing3			LeftHandRing3_End			LeftInHandPinky			LeftHandPinky1			LeftHandPinky2			LeftHandPinky3			LeftHandPinky3_End			
		X1	Y1	Z1	X2	Y2	Z2	X3	Y3	Z3	X4	Y4	Z4	X5	Y5	Z5	X6	Y6	Z6	X7	Y7	Z7	X8	Y8	Z8	X9	Y9	Z9	X10	Y10	Z10	X11	Y11	Z11	X12	Y12	Z12	X13	Y13	Z13	X14	Y14	Z14	X15	Y15	Z15	X16	Y16	Z16	X17	Y17	Z17	X18	Y18	Z18	X19	Y19	Z19	X20	Y20	Z20	X21	Y21	Z21	X22	Y22	Z22	X23	Y23	Z23	X24	Y24	Z24	X25	Y25	Z25	X26	Y26	Z26	X27	Y27	Z27	X28	Y28	Z28	X29	Y29	Z29	X30	Y30	Z30	X31	Y31	Z31	X32	Y32	Z32	X33	Y33	Z33	X34	Y34	Z34	X35	Y35	Z35	X36	Y36	Z36	X37	Y37	Z37	X38	Y38	Z38	X39	Y39	Z39	X40	Y40	Z40	X41	Y41	Z41	X42	Y42	Z42	X43	Y43	Z43	X44	Y44	Z44	X45	Y45	Z45	X46	Y46	Z46	X47	Y47	Z47	X48	Y48	Z48	X49	Y49	Z49	X50	Y50	Z50	X51	Y51	Z51	X52	Y52	Z52	X53	Y53	Z53	X54	Y54	Z54	X55	Y55	Z55	X56	Y56	Z56	X57	Y57	Z57	X58	Y58	Z58	X59	Y59	Z59	X60	Y60	Z60	X61	Y61	Z61	X62	Y62	Z62	X63	Y63	Z63	X64	Y64	Z64	X65	Y65	Z65	X66	Y66	Z66	X67	Y67	Z67	X68	Y68	Z68	X69	Y69	Z69	X70	Y70	Z70	X71	Y71	Z71	X72	Y72	Z72	

202	1.675	6446.805	859.65103	-201.189	6492.006002044698	836.0830774372212	-252.98143365674628	6398.59965412564	432.813484728016	-280.88076948194197	6506.89698114984	63.31424894787388	-411.77392634907693	6487.841569613193	-32.333404881103995	-264.85124495334685	6408.425511927155	854.4144784879572	-136.0235989258394	6287.91358206058	463.38422773931893	-48.77064646240243	6223.25103038826	69.78843108850435	79.39399951214513	6286.946744396489	13.219872739439975	248.9500443477438	6414.170560935508	986.9105656344943	-256.5089632472038	6367.460419672101	1060.3995367654693	-299.362257777205	6313.381230181078	1133.2433438914074	-344.0202904188883	6253.160119656857	1195.6596733945894	-387.3725799653735	6187.352977911781	1261.8413099619768	-429.95951034798304	6133.709868192399	1330.6381213661289	-393.06810357180564	6110.1096157943275	1418.8462540300561	-263.59168418344876	6217.535942122864	1237.9863347429218	-435.5324998460384	6253.866326708169	1212.0527975743046	-505.6742319417683	6278.628501151179	1010.4730138362863	-470.91114780739974	6299.331616889602	912.9329595644768	-564.6422353630164	6311.413362275929	923.6951791124947	-575.068231553311	6310.769820483084	928.8753123782499	-593.1678672896744	6309.617380512883	929.4237501467251	-605.4515622351527	6308.054150724504	927.2640615223825	-615.41743260262	6311.269487736929	913.3869918073844	-574.1630751248543	6321.391192793537	904.1635844484764	-590.6049662101905	6321.638905901115	899.5071409475274	-605.8469660368994	6317.850861306431	900.7870090607736	-616.3943333759813	6312.056464261622	904.6623723385026	-625.8470962170037	6308.678650594233	905.4717720838141	-572.8986496117502	6317.151609851711	892.1936932057804	-588.2505641416385	6317.0387401106445	886.1003074714646	-604.667193422764	6312.284716684273	887.1586729614901	-617.2888297099674	6305.855199404723	891.1628828044752	-627.5816123393959	6306.656350645448	900.0753129012038	-571.5483498418317	6312.688628895216	883.3747589290276	-584.0251142136511	6312.184518927508	877.0504559042887	-598.0899442103745	6307.383411479701	877.5332301880569	-610.1349605061571	6301.235929490423	881.0432072896353	-619.7513734992739	6303.509098265096	894.4357489684962	-569.8104326049408	6307.327726981861	875.505054707055	-580.0624020619333	6306.264269752407	868.9330727312717	-590.8902491725781	6302.4431604225065	868.5558772240204	-599.4656330880034	6296.813813025978	871.2454075012317	-607.8631803020959	6201.49096538066	1244.5312354113478	-395.432974878881	6177.675932331621	1220.20154307141	-316.4598181353291	6197.8185940044805	1059.0559200447315	-417.93593667010464	6306.058804370987	946.0377646614897	-439.3965309093878	6298.751156893335	959.782721833098	-451.4111867222868	6302.907040551696	955.1021829229708	-472.52274923195154	6306.070130935308	948.5773211554214	-487.6399790557528	6308.937133106222	940.3444214845586	-500.59769263277326	6297.832670746359	950.3055773448376	-453.4377396680224	6291.508126089448	940.5276963624514	-478.8792597887206	6293.581278236482	928.5573581594556	-499.5962494733205	6298.695661911021	921.6984673814233	-511.8170586197918	6305.509258101529	916.4146620846842	-521.48774689734	6299.092000942489	941.5191830210995	-453.8244979221053	6293.602556095497	927.2310425273987	-478.84773113640824	6296.059544717721	913.0349420176306	-501.42635789001645	6302.323333766692	904.2157336609154	-516.1570052149766	6309.824088867338	898.1697291903243	-526.7320188242619	6300.077868644792	935.590274707735	-453.42570544022436	6295.823155581413	917.723850528465	-475.43860428689493	6298.173119841104	904.2135238691878	-495.0506942046281	6304.32574719685	895.1029131509335	-509.2237107770402	6311.430811487042	889.1320271917785	-519.1498919478558	6301.911312658993	928.8104281967817	-452.4086936392908	6298.918265752972	908.3383940982902	-471.9034870043854	6301.144263927705	895.8237504617142	-487.4069456606552	6305.798535051766	888.3579846023176	-497.64748846261216	6312.188299279414	882.5965742584006	-506.38446497598886
203	1.683	6446.805	859.65103	-201.189	6490.630568878245	835.653391869705	-253.2126080860512	6398.7942818803085	432.0908614155918	-280.85970453492996	6507.6468781418525	63.9762076983349	-414.31782803921493	6490.35856505999	-32.329785114649056	-268.1268699291561	6409.750450741401	854.8263733431548	-135.80584024316005	6289.286569710636	463.8071256730012	-48.447581785503964	6224.015105245436	70.14251979380198	79.10421560747439	6287.947755826899	13.191987493954292	248.40567522571072	6414.474527249346	987.0153851386931	-256.43468514038454	6367.895233568348	1060.6722510596824	-299.14529370921866	6313.961707251447	1133.729561039919	-343.6348181220149	6253.880747702387	1196.409376456441	-386.7888348848336	6188.209115155446	1262.8585594997442	-429.13247670302843	6134.593075681407	1331.7098147015893	-392.3477613297512	6111.14778870757	1420.230617785358	-263.1039318899789	6217.915651411748	1238.6387649236258	-434.622782402009	6252.4954496335795	1211.8098063307	-503.72026581793875	6276.239174465946	1012.1576190979409	-466.1594554028153	6294.2845167989835	914.8952837149989	-556.8580725352202	6306.106690247782	925.6980625311205	-567.0086725731114	6305.492945834204	930.905601591219	-584.5967100849051	6304.354760859748	931.4630600298017	-596.510712518499	6302.797857728554	929.3022814389363	-606.1569096305776	6305.878973938072	915.3559913152301	-566.0445213138208	6315.610879634291	906.1120631143782	-581.8633898058753	6315.783580442634	901.4494887454173	-596.5951051031049	6312.092161148681	902.7398096330683	-606.8423882955548	6306.474374409452	906.6334463939959	-616.0583462586894	6303.293364193423	907.4144987250089	-564.7616458751504	6311.388896381718	894.1021910437614	-579.4959252764035	6311.196372532633	887.9987254310911	-595.3552233012097	6306.559979729206	889.0680751266469	-607.6145748076499	6300.324219453542	893.0914886892781	-617.648131146852	6301.282591672106	901.9998487879251	-563.4147771888706	6306.980445223698	885.2523815408987	-575.3426555414061	6306.4097744550745	878.9158836085049	-588.9221599991655	6301.723653447298	879.4074426364325	-600.6179609861372	6295.759073491971	882.9346181756835	-609.9907483946488	6298.176561658722	896.3411158600741	-561.6943945770794	6301.706656276852	877.3550566679837	-571.4554417037137	6300.595844993239	870.7681964305712	-581.8977441016755	6296.861483208918	870.3949352239727	-590.2199016727029	6291.395812441399	873.0982770461267	-598.4024954112707	6202.750758601707	1245.7148723661726	-394.90841042476444	6180.498302469763	1222.7949845435137	-316.48627130788566	6199.234585501083	1061.5196672723418	-414.05326468358857	6303.338785841898	947.9303084105993	-434.95927489465873	6296.086649218768	961.5979005736117	-446.58805726667003	6300.1223748085795	956.7614761435958	-467.1540979577809	6303.227586221278	950.1219178680905	-481.88682125438265	6306.068407603649	941.7881499489787	-494.52004881082706	6295.294028431379	952.0960867521773	-448.5703603455715	6289.219841429392	942.1203076222595	-473.3042561082573	6291.316108136072	929.9885824095383	-493.48788435265703	6296.321475149016	923.0367211755029	-505.4132997437905	6302.961609992679	917.6809313667018	-514.8639065389534	6296.607631715342	943.2987615390925	-448.96727768623566	6291.391777561306	928.8116914008706	-473.3058220967612	6293.880149170353	914.4386556054579	-495.3060300547712	6300.015369460459	905.506883611339	-509.6820160105646	6307.327763249062	899.3819214416774	-520.0170569801679	6297.627207336496	937.3673415166868	-448.59396468096946	6293.652075547938	919.3209267945574	-470.01607943561044	6296.035239331552	905.655846098708	-489.1287575910378	6302.066956196296	896.4363738478883	-502.96219249142644	6308.996384312348	890.3911127873777	-512.6639319509939	6299.47844037864	930.5890663243895	-447.6248928626536	6296.758753079024	909.9533905173238	-466.6079697269448	6299.0192243923375	897.314772239585	-481.72148779486486	6303.589118672711	889.7695765062114	-491.7191610135519	6309.825493831206	883.9422670535183	-500.260094187695
204	1.692	6446.805	859.65103	-201.189	6489.23073960355	835.2286370018894	-253.42079016898353	6399.000539475454	431.3722169074397	-280.82422147834797	6508.3599198607635	64.6612612459915	-416.878706536374	6492.864328422393	-32.31828556714985	-271.44925566930726	6411.099351471352	855.2335974455049	-135.61040351364954	6290.67131388802	464.2296593121046	-48.1475575961742	6224.7711283619055	70.51870503840392	78.82815622067027	6288.935129785623	13.1804443928562	247.87278447157843	6414.781906519951	987.1187898492208	-256.36471312902256	6368.335074117001	1060.945689887574	-298.92896104862416	6314.549098976887	1134.2194576012287	-343.24484298875376	6254.610328655606	1197.166704598409	-386.19321987123817	6189.077231488478	1263.888376096083	-428.2846049582449	6135.505692200539	1332.803141615024	-391.60567504992156	6112.224698143501	1421.6474472113462	-262.6037829282648	6218.2980877206855	1239.3056550152396	-433.6808578073069	6251.098596952196	1211.6065395573187	-501.66989243065836	6273.912647577724	1013.9887655561699	-461.2524445141944	6289.299974655322	917.1600205643435	-548.7952003950911	6300.8442155832045	928.0240475250309	-558.6507601468489	6300.261643620749	933.2725959485168	-575.7045305905527	6299.141103391806	933.8488317588187	-587.233332061546	6297.595433447783	931.695339182484	-596.5471651341338	6300.538206531867	917.652211726649	-557.6268598260674	6309.876186232214	908.4215035571267	-572.7923413548693	6309.978935364896	903.7698363976863	-586.9923688081747	6306.389980649223	905.0748176218838	-596.9282413396695	6300.955453961433	908.9859035807201	-605.8993549851441	6297.964959911147	909.6837358630717	-556.3273348375069	6305.682897493153	896.3697267871786	-570.415336518066	6305.417206515955	890.2745620004442	-585.6942837193935	6300.905952218696	891.359870791395	-597.5778465276063	6294.8714500594515	895.4015368652805	-607.3434582928743	6295.970796048547	904.2496062350567	-554.9859425959936	6301.338294089771	887.4834743202605	-566.3410367134661	6300.707703748386	881.1505341952769	-579.4155399758188	6296.144335365261	881.6555343157523	-590.7493062542937	6290.369958811252	885.1989464656647	-599.8703684161319	6292.912480074774	898.5686584486289	-553.2863431512785	6296.161553913738	879.551525151642	-562.5365366697148	6295.0102294278695	872.9618590308022	-572.5782488114412	6291.369016510614	872.5956663940817	-580.6381729628196	6286.073914131663	875.3118169028262	-588.5988359017401	6204.0285619015	1246.9046043240917	-394.38123297586736	6183.3710270843485	1225.3983419291417	-316.57766394896413	6200.762167777932	1064.0807658937103	-410.1340640228924	6300.63305252206	950.066669324657	-430.3870679560615	6293.454160385119	963.6693576858676	-441.6024681273436	6297.379151425258	958.6906938339913	-461.5971835546318	6300.433273603412	951.9472874735509	-475.9295914157489	6303.253768860668	943.5228460162191	-488.227002103609	6292.791103934246	954.1494297204513	-443.5458413127376	6286.99542602657	944.0072520122991	-467.545788258602	6289.127680817142	931.7329119252249	-487.1772089527632	6294.025978088379	924.6944825644871	-498.7955074386737	6300.490177717259	919.2684538153517	-508.0163250961982	6294.1582991279365	945.3435865417937	-443.95968546647856	6289.243127198272	930.6896165384516	-467.5915258056818	6291.776739789607	916.1603418668046	-488.99372783087347	6297.785649213012	907.1238322565513	-503.0013780449292	6304.906930587305	900.9218718681394	-513.086052525636	6295.210458327769	939.4106027509144	-443.6173193323693	6291.538431510373	921.2138630504403	-464.43370766057797	6293.966636198154	907.4122333540824	-483.030935695529	6299.879494453145	898.0915365146861	-496.512147947372	6306.630639932548	891.9737845115172	-505.97993303676344	6297.076775832635	932.633708358492	-442.70313946722615	6294.650618314009	911.8616504578131	-461.1651199450532	6296.954571545016	899.1137646638302	-475.87753250104095	6301.441356651133	891.4947719796364	-485.62392746028587	6307.5218666227265	885.6032684469164	-493.9608577731622
205	1.7	6446.805	859.65103	-201.189	6487.807665785562	834.80937149349	-253.60532129606392	6399.218368838145	430.6585662813219	-280.77438398247796	6509.034871051592	65.36930541997114	-419.4541323684591	6495.355642237279	-32.298517491860046	-274.81584953184694	6412.471133385492	855.6356321825958	-135.43789489759163	6292.06657742226	464.65147280837044	-47.87074622913301	6225.518407945062	70.9167728598118	78.56651976815382	6289.908051732986	13.185228512346429	247.3522162931798	6415.092320129989	987.2205699436915	-256.29931782361217	6368.779459237372	1061.2194940395634	-298.7136249732495	6315.142832739964	1134.7125149102592	-342.850814235633	6255.348218255335	1197.9309471304541	-385.5862493337422	6189.956661854174	1264.9298800736465	-427.41651113399854	6136.447144955021	1333.9173082793964	-390.84255855587855	6113.339809061	1423.0957802225248	-262.0919148187092	6218.683006476289	1239.9866004301134	-432.7072696711998	6249.677423079763	1211.4442769292446	-499.5239061384043	6271.653784516198	1015.9669911857648	-456.19392174518606	6284.38692084757	919.7303115026228	-540.4602891591471	6295.6355136044085	930.6767255604586	-550.00137735193	6295.085810006407	935.9800761607396	-566.4988170302847	6293.986508114375	936.5849802213129	-577.6273498433428	6292.457131060833	934.4472635400459	-586.5965120686077	6295.256787749415	920.2793301783178	-548.9170331852226	6304.197504464672	911.0962554026378	-563.3993785128023	6304.2357092420525	906.4728101843459	-577.0468998219359	6300.755117281371	907.7966721531069	-586.6604215482006	6295.510443481881	911.7242863055442	-595.3789865241839	6292.702949566117	912.2831346262647	-547.6026976505568	6300.043846355749	899.0005934767155	-561.0163998487036	6299.711838801075	892.932406252795	-575.6926183237996	6295.33329487715	894.0386617184154	-587.1873562400253	6289.507486238164	898.0975219014393	-596.6766725639092	6290.730393655188	906.8282029272632	-546.2688374635771	6295.772186830335	890.0722073232243	-557.0278104801872	6295.088618803802	883.7588287277564	-569.578198574779	6290.655822327954	884.2819348026508	-580.5375631800134	6285.0788846750675	887.8405191810889	-589.3991465027177	6287.726149626089	901.1219199089137	-544.5932743131334	6290.702174109457	882.0984712670639	-553.3131963251366	6289.517390158061	875.518259267793	-562.9397237600172	6285.975752676673	875.1622692121749	-570.728738061562	6280.858044338399	877.8901309798666	-578.4607998047708	6205.323259532141	1248.0991978856684	-393.8520045467858	6186.2914530798735	1228.0085055323568	-316.73508558606943	6202.401579087545	1066.7377359927125	-406.1829092510979	6297.945843262311	952.449005201742	-425.68397559212326	6290.858065381301	965.9998955454248	-436.4590644542758	6294.682173038046	960.8932928468021	-455.85708388986666	6297.692262315754	954.0573467498398	-469.7736533890542	6300.498481657992	945.552813432257	-481.7241416287951	6290.328134224876	956.4684948839244	-438.36884596653897	6284.839165420824	946.1924974206521	-461.6092892110367	6287.020521849573	933.7950002033938	-480.6700842376797	6291.813980385183	926.6767082401418	-491.96970251212196	6298.100097036232	921.1823540771563	-500.95108401774144	6291.748163359691	947.656517268887	-438.8063109782505	6287.160770964645	932.8687139705585	-461.71014277449353	6289.753734422	918.2046375067155	-482.49520640224245	6295.638928796593	909.0715785143078	-496.1210334194266	6302.566701132029	902.7947614195646	-505.9450110321343	6292.831724017811	941.7228702482466	-438.5002885603596	6289.486274193874	923.4063618092813	-458.69658725001005	6291.97157047505	909.4870244533498	-476.7627093420659	6297.767942521093	900.0730844292048	-489.879230958777	6304.338489623571	893.8848944649078	-499.1036052342845	6294.710371445619	934.9470730964483	-437.64783999286044	6292.597828015169	914.0666556700384	-455.5798100225653	6294.954423820043	901.2247006610378	-469.88023446453445	6299.3595936005495	893.5377863216999	-479.3670570587242	6305.282050854532	887.583938177903	-487.49206810472526
